<svg xmlns="http://www.w3.org/2000/svg" viewBox="0 0 256 256"><defs><style>.cls-1{fill:#cbecf9;}.cls-2{fill:#2fb1ea;}.cls-3{fill:#e5f5fc;}.cls-4{fill:#fff;}.cls-5{fill:#52e355;}.cls-6{fill:#90fc95;}.cls-7{fill:#f97171;}.cls-8{fill:#f88;}.cls-9{fill:#a4ecff;}.cls-10{fill:#d4ffd4;}.cls-11{fill:#ffbdbd;}.cls-12{fill:#bbf1ff;}.cls-13{fill:#fff4c5;}</style></defs><title>business economic finance interprise company checklist</title><g id="Layer_2" data-name="Layer 2"><path class="cls-1" d="M201,232H95a20,20,0,0,1-20-20V64c0-11,9,0,20,0H201a20,20,0,0,1,20,20V212A20,20,0,0,1,201,232Z"/><path class="cls-2" d="M201,234H95a22,22,0,0,1-22-22V64c0-2,.24-4.87,2.28-6.22,2.31-1.53,5.18-.3,8.81,1.25,3.1,1.32,7,3,10.91,3H201a22,22,0,0,1,22,22V212A22,22,0,0,1,201,234ZM77.77,61.07a.65.65,0,0,0-.28.05S77,61.58,77,64V212a18,18,0,0,0,18,18H201a18,18,0,0,0,18-18V84a18,18,0,0,0-18-18H95c-4.78,0-9-1.83-12.48-3.29A19.73,19.73,0,0,0,77.77,61.07Z"/><rect class="cls-3" x="55" y="44" width="146" height="168" rx="20" ry="20"/><path class="cls-2" d="M181,214H75a22,22,0,0,1-22-22V64A22,22,0,0,1,75,42H181a22,22,0,0,1,22,22V192A22,22,0,0,1,181,214ZM75,46A18,18,0,0,0,57,64V192a18,18,0,0,0,18,18H181a18,18,0,0,0,18-18V64a18,18,0,0,0-18-18Z"/><rect class="cls-1" x="35" y="24" width="146" height="168" rx="20" ry="20"/><rect class="cls-4" x="35" y="24" width="137" height="158.52" rx="20" ry="20"/><path class="cls-2" d="M161,194H55a22,22,0,0,1-22-22V44A22,22,0,0,1,55,22H161a22,22,0,0,1,22,22V172A22,22,0,0,1,161,194ZM55,26A18,18,0,0,0,37,44V172a18,18,0,0,0,18,18H161a18,18,0,0,0,18-18V44a18,18,0,0,0-18-18Z"/><rect class="cls-5" x="53" y="47" width="30" height="30" rx="6" ry="6"/><rect class="cls-6" x="53" y="47" width="30" height="23" rx="6" ry="6"/><path class="cls-2" d="M77,79H59a8,8,0,0,1-8-8V53a8,8,0,0,1,8-8H77a8,8,0,0,1,8,8V71A8,8,0,0,1,77,79ZM59,49a4,4,0,0,0-4,4V71a4,4,0,0,0,4,4H77a4,4,0,0,0,4-4V53a4,4,0,0,0-4-4Z"/><rect class="cls-1" x="53" y="93" width="30" height="30" rx="6" ry="6"/><rect class="cls-4" x="53" y="93" width="30" height="23" rx="6" ry="6"/><path class="cls-2" d="M77,125H59a8,8,0,0,1-8-8V99a8,8,0,0,1,8-8H77a8,8,0,0,1,8,8v18A8,8,0,0,1,77,125ZM59,95a4,4,0,0,0-4,4v18a4,4,0,0,0,4,4H77a4,4,0,0,0,4-4V99a4,4,0,0,0-4-4Z"/><rect class="cls-7" x="53" y="139" width="30" height="30" rx="6" ry="6"/><rect class="cls-8" x="53" y="139" width="30" height="23" rx="6" ry="6"/><path class="cls-2" d="M77,171H59a8,8,0,0,1-8-8V145a8,8,0,0,1,8-8H77a8,8,0,0,1,8,8v18A8,8,0,0,1,77,171ZM59,141a4,4,0,0,0-4,4v18a4,4,0,0,0,4,4H77a4,4,0,0,0,4-4V145a4,4,0,0,0-4-4Z"/><rect class="cls-9" x="97" y="47" width="33" height="10" rx="3" ry="3"/><rect class="cls-9" x="97" y="67" width="66" height="10" rx="3" ry="3"/><rect class="cls-9" x="97" y="93" width="33" height="10" rx="3" ry="3"/><rect class="cls-9" x="97" y="113" width="66" height="10" rx="3" ry="3"/><rect class="cls-9" x="97" y="139" width="33" height="10" rx="3" ry="3"/><rect class="cls-9" x="97" y="159" width="66" height="10" rx="3" ry="3"/><circle class="cls-10" cx="24" cy="123" r="5"/><circle class="cls-10" cx="128" cy="248" r="4"/><circle class="cls-10" cx="248" cy="141" r="3"/><circle class="cls-10" cx="189" cy="6" r="2"/><circle class="cls-10" cx="218" cy="57" r="1"/><circle class="cls-11" cx="249" cy="79" r="5"/><circle class="cls-11" cx="201" cy="24" r="4"/><circle class="cls-11" cx="19" cy="149" r="3"/><circle class="cls-11" cx="24" cy="59" r="2"/><circle class="cls-11" cx="85" cy="16" r="1"/><circle class="cls-12" cx="58" cy="228" r="5"/><circle class="cls-12" cx="234" cy="164" r="4"/><circle class="cls-12" cx="131" cy="12" r="3"/><circle class="cls-12" cx="230" cy="228" r="2"/><circle class="cls-12" cx="228" cy="209" r="1"/><circle class="cls-13" cx="7" cy="199" r="5"/><circle class="cls-13" cx="234" cy="116" r="4"/><circle class="cls-13" cx="175" cy="243" r="3"/><circle class="cls-13" cx="42" cy="207" r="2"/><circle class="cls-13" cx="157" cy="15" r="1"/></g></svg>