<?xml version="1.0" encoding="UTF-8" standalone="no"?>
<svg
   t="1691392967145"
   class="icon"
   viewBox="0 0 1024 1024"
   version="1.1"
   p-id="1486"
   width="200"
   height="200"
   id="svg1"
   sodipodi:docname="Location.svg"
   inkscape:version="1.3 (0e150ed6c4, 2023-07-21)"
   inkscape:export-filename="Location.png"
   inkscape:export-xdpi="96"
   inkscape:export-ydpi="96"
   xmlns:inkscape="http://www.inkscape.org/namespaces/inkscape"
   xmlns:sodipodi="http://sodipodi.sourceforge.net/DTD/sodipodi-0.dtd"
   xmlns="http://www.w3.org/2000/svg"
   xmlns:svg="http://www.w3.org/2000/svg">
  <defs
     id="defs1" />
  <sodipodi:namedview
     id="namedview1"
     pagecolor="#ffffff"
     bordercolor="#000000"
     borderopacity="0.25"
     inkscape:showpageshadow="2"
     inkscape:pageopacity="0.0"
     inkscape:pagecheckerboard="0"
     inkscape:deskcolor="#d1d1d1"
     inkscape:zoom="3.905"
     inkscape:cx="99.871959"
     inkscape:cy="99.743918"
     inkscape:window-width="1920"
     inkscape:window-height="991"
     inkscape:window-x="-9"
     inkscape:window-y="-9"
     inkscape:window-maximized="1"
     inkscape:current-layer="svg1" />
  <path
     d="M537.6 128c96 6.4 185.6 44.8 249.6 108.8s102.4 153.6 108.8 249.6h89.6c12.8 0 25.6 12.8 25.6 25.6s-12.8 25.6-25.6 25.6H896c-6.4 96-44.8 185.6-108.8 249.6S640 889.6 537.6 896v89.6c0 12.8-12.8 25.6-25.6 25.6s-25.6-12.8-25.6-25.6V896c-96-6.4-185.6-44.8-249.6-108.8S134.4 640 128 537.6H38.4C25.6 537.6 19.2 524.8 19.2 512s12.8-25.6 25.6-25.6H128c6.4-96 44.8-185.6 108.8-249.6S390.4 134.4 486.4 128V38.4c0-12.8 12.8-25.6 25.6-25.6s25.6 12.8 25.6 25.6V128zM512 473.6c19.2 0 38.4 19.2 38.4 38.4s-19.2 38.4-38.4 38.4-38.4-19.2-38.4-38.4 19.2-38.4 38.4-38.4z m0-147.2c51.2 0 96 19.2 128 51.2s51.2 76.8 51.2 128-19.2 96-51.2 128-76.8 51.2-128 51.2-96-19.2-128-51.2c-32-25.6-57.6-70.4-57.6-121.6 0-51.2 19.2-96 51.2-128 38.4-32 83.2-57.6 134.4-57.6z m96 89.6c-25.6-25.6-57.6-38.4-96-38.4s-70.4 12.8-96 38.4c-25.6 25.6-38.4 57.6-38.4 96s12.8 70.4 38.4 96c25.6 25.6 57.6 38.4 96 38.4s70.4-12.8 96-38.4c25.6-25.6 38.4-57.6 38.4-96s-12.8-70.4-38.4-96z m121.6-121.6c-57.6-51.2-134.4-89.6-217.6-89.6-83.2 0-160 32-217.6 89.6-51.2 57.6-89.6 134.4-89.6 217.6 0 83.2 32 160 89.6 217.6 57.6 57.6 128 89.6 217.6 89.6 83.2 0 160-32 217.6-89.6 57.6-57.6 89.6-134.4 89.6-217.6 0-83.2-38.4-160-89.6-217.6z"
     fill=""
     p-id="1487"
     id="path1"
     style="fill:#7f2aff" />
</svg>
