<?xml version="1.0" encoding="UTF-8" standalone="no"?>
<svg
   t="1691405377540"
   class="icon"
   viewBox="0 0 1024 1024"
   version="1.1"
   p-id="4022"
   width="200"
   height="200"
   id="svg1"
   sodipodi:docname="WeatherUpdate.svg"
   inkscape:version="1.3 (0e150ed6c4, 2023-07-21)"
   inkscape:export-filename="WeatherUpdate.png"
   inkscape:export-xdpi="96"
   inkscape:export-ydpi="96"
   xmlns:inkscape="http://www.inkscape.org/namespaces/inkscape"
   xmlns:sodipodi="http://sodipodi.sourceforge.net/DTD/sodipodi-0.dtd"
   xmlns="http://www.w3.org/2000/svg"
   xmlns:svg="http://www.w3.org/2000/svg">
  <defs
     id="defs1" />
  <sodipodi:namedview
     id="namedview1"
     pagecolor="#ffffff"
     bordercolor="#000000"
     borderopacity="0.25"
     inkscape:showpageshadow="2"
     inkscape:pageopacity="0.0"
     inkscape:pagecheckerboard="0"
     inkscape:deskcolor="#d1d1d1"
     inkscape:zoom="3.905"
     inkscape:cx="99.871959"
     inkscape:cy="100"
     inkscape:window-width="1920"
     inkscape:window-height="991"
     inkscape:window-x="-9"
     inkscape:window-y="-9"
     inkscape:window-maximized="1"
     inkscape:current-layer="svg1" />
  <path
     d="M684.032 403.456q-17.408-8.192-15.872-22.016t11.776-22.016q3.072-2.048 19.968-15.872t41.472-33.28q-43.008-49.152-102.4-77.312t-129.024-28.16q-64.512 0-120.832 24.064t-98.304 66.048-66.048 98.304-24.064 120.832q0 63.488 24.064 119.808t66.048 98.304 98.304 66.048 120.832 24.064q53.248 0 100.864-16.896t87.04-47.616 67.584-72.192 41.472-90.624q7.168-23.552 26.624-38.912t46.08-15.36q31.744 0 53.76 22.528t22.016 53.248q0 14.336-5.12 27.648-21.504 71.68-63.488 132.096t-99.84 103.936-128.512 68.096-148.48 24.576q-95.232 0-179.2-35.84t-145.92-98.304-98.304-145.92-36.352-178.688 36.352-179.2 98.304-145.92 145.92-98.304 179.2-36.352q105.472 0 195.584 43.52t153.6 118.272q23.552-17.408 39.424-30.208t19.968-15.872q6.144-5.12 13.312-7.68t13.312 0 10.752 10.752 6.656 24.576q1.024 9.216 2.048 31.232t2.048 51.2 1.024 60.416-1.024 58.88q-1.024 34.816-16.384 50.176-8.192 8.192-24.576 9.216t-34.816-3.072q-27.648-6.144-60.928-13.312t-63.488-14.848-53.248-14.336-29.184-9.728z"
     p-id="4023"
     id="path1"
     style="fill:#b3b3b3" />
</svg>
