<?xml version="1.0" encoding="UTF-8" standalone="no"?>
<svg
   t="1691390610821"
   class="icon"
   viewBox="0 0 1024 1024"
   version="1.1"
   p-id="1609"
   width="200"
   height="200"
   id="svg1"
   sodipodi:docname="Wind360.svg"
   inkscape:version="1.3 (0e150ed6c4, 2023-07-21)"
   inkscape:export-filename="Wind360.png"
   inkscape:export-xdpi="96"
   inkscape:export-ydpi="96"
   xmlns:inkscape="http://www.inkscape.org/namespaces/inkscape"
   xmlns:sodipodi="http://sodipodi.sourceforge.net/DTD/sodipodi-0.dtd"
   xmlns="http://www.w3.org/2000/svg"
   xmlns:svg="http://www.w3.org/2000/svg">
  <defs
     id="defs1" />
  <sodipodi:namedview
     id="namedview1"
     pagecolor="#ffffff"
     bordercolor="#000000"
     borderopacity="0.25"
     inkscape:showpageshadow="2"
     inkscape:pageopacity="0.0"
     inkscape:pagecheckerboard="0"
     inkscape:deskcolor="#d1d1d1"
     inkscape:zoom="2.761252"
     inkscape:cx="79.674003"
     inkscape:cy="112.08684"
     inkscape:window-width="1920"
     inkscape:window-height="991"
     inkscape:window-x="-9"
     inkscape:window-y="-9"
     inkscape:window-maximized="1"
     inkscape:current-layer="svg1" />
  <path
     d="m 508.18372,77.030673 c -18.66762,0 -35.42605,11.101576 -42.77996,28.354977 L 137.73048,882.63743 c -7.49534,17.67767 -3.11127,38.46661 10.74802,51.61879 13.93,13.2229 34.86036,16.47559 52.11377,8.13173 L 507.26448,794.10766 815.77517,942.38795 c 17.2534,8.34386 38.18377,4.94975 52.04306,-8.20244 l 0.77782,-0.77782 c 13.22289,-13.22289 17.2534,-33.51686 9.9702,-50.84097 L 550.89297,105.31494 C 543.60977,88.132249 526.85134,77.030673 508.18372,77.030673 Z M 750.86277,811.29035 527.2756,703.81012 c -12.79863,-6.15183 -27.43574,-6.08112 -40.23437,0.0707 L 265.57538,810.9368 508.11301,235.63472 Z"
     p-id="1610"
     id="path1"
     style="fill:#3771c8" />
</svg>
