<?xml version="1.0" encoding="UTF-8" standalone="no"?>
<svg
   enable-background="new 0 0 515.91 728.5"
   height="512"
   id="Layer_1"
   version="1.1"
   viewBox="0 0 1536.0001 512"
   width="1536"
   xml:space="preserve"
   sodipodi:docname="archlinux_hoverd.svg"
   inkscape:version="1.2.1 (9c6d41e410, 2022-07-14)"
   xmlns:inkscape="http://www.inkscape.org/namespaces/inkscape"
   xmlns:sodipodi="http://sodipodi.sourceforge.net/DTD/sodipodi-0.dtd"
   xmlns="http://www.w3.org/2000/svg"
   xmlns:svg="http://www.w3.org/2000/svg"><sodipodi:namedview
     id="namedview7"
     pagecolor="#505050"
     bordercolor="#eeeeee"
     borderopacity="1"
     inkscape:showpageshadow="0"
     inkscape:pageopacity="0"
     inkscape:pagecheckerboard="0"
     inkscape:deskcolor="#505050"
     showgrid="false"
     inkscape:zoom="0.57314319"
     inkscape:cx="768.56885"
     inkscape:cy="168.36979"
     inkscape:window-width="1902"
     inkscape:window-height="995"
     inkscape:window-x="0"
     inkscape:window-y="0"
     inkscape:window-maximized="0"
     inkscape:current-layer="Layer_1" /><defs
     id="defs7"><filter
       inkscape:collect="always"
       style="color-interpolation-filters:sRGB"
       id="filter1134"
       x="-0.17224732"
       y="-0.17224731"
       width="1.3444946"
       height="1.3444946"><feGaussianBlur
         inkscape:collect="always"
         stdDeviation="31.029478"
         id="feGaussianBlur1136" /></filter><filter
       inkscape:collect="always"
       style="color-interpolation-filters:sRGB"
       id="filter1138"
       x="-0.047925677"
       y="-0.211217"
       width="1.0958514"
       height="1.422434"><feGaussianBlur
         inkscape:collect="always"
         stdDeviation="25.037739"
         id="feGaussianBlur1140" /></filter></defs><rect
     style="fill:#1a1a1a;fill-opacity:0.5;stroke-width:71.0287;stroke-linecap:round;stroke-linejoin:round;stroke-miterlimit:4.7;stroke-opacity:0.952941;paint-order:stroke markers fill;filter:url(#filter1138)"
     id="rect569"
     width="1253.8284"
     height="284.49686"
     x="257.74478"
     y="113.75158"
     ry="142.24843" /><path
     d="m 458.21579,253.76317 c 0,119.38955 -96.78435,216.1739 -216.17393,216.1739 -119.3895,0 -216.173857,-96.78435 -216.173857,-216.1739 0,-119.38955 96.784357,-216.173902 216.173857,-216.173902 119.38958,0 216.17393,96.784352 216.17393,216.173902 z"
     id="path4878"
     style="fill:#1a1a1a;fill-opacity:0.50276244;fill-rule:nonzero;stroke:none;stroke-width:0.585803;filter:url(#filter1134)" /><rect
     style="fill:#4d73a3;fill-opacity:1;stroke-width:71.0287;stroke-linecap:round;stroke-linejoin:round;stroke-miterlimit:4.7;stroke-opacity:0.952941;paint-order:stroke markers fill"
     id="rect1125"
     width="1253.8284"
     height="284.49686"
     x="257.74478"
     y="113.75158"
     ry="142.24843" /><g
     id="g1131"
     transform="translate(148.11806,138.35224)"><path
       d="m 310.09773,115.41093 c 0,119.38955 -96.78435,216.1739 -216.173927,216.1739 -119.3895,0 -216.173863,-96.78435 -216.173863,-216.1739 0,-119.3895533 96.784363,-216.1739 216.173863,-216.1739 119.389577,0 216.173927,96.7843467 216.173927,216.1739 z"
       id="path1127"
       style="fill:#1793d1;fill-opacity:1;fill-rule:nonzero;stroke:none;stroke-width:0.585803" /><path
       d="M 93.898263,-64.19218 C 81.80482,-34.542378 74.510651,-15.147848 61.046152,13.620624 69.30161,22.371335 79.434754,32.561955 95.890783,44.071342 78.198846,36.791199 66.130759,29.482138 57.112162,21.897495 39.88024,57.85454 12.882805,109.07375 -41.903881,207.51403 1.1565955,182.65453 34.536213,167.32837 65.644445,161.48032 64.308753,155.73506 63.549157,149.52044 63.600742,143.03617 l 0.05119,-1.37948 c 0.68336,-27.58765 15.034409,-48.802546 32.034641,-47.362102 17.000217,1.440453 30.214277,24.985802 29.530997,52.573472 -0.12845,5.19112 -0.71392,10.18492 -1.73711,14.81662 30.77045,6.01925 63.79323,21.30617 106.27107,45.82935 -8.37588,-15.4204 -15.85198,-29.32077 -22.99139,-42.55948 -11.24564,-8.71619 -22.97555,-20.06035 -46.90224,-32.34111 16.44587,4.27332 28.22075,9.20359 37.39906,14.71443 C 124.66872,12.180919 118.79058,-5.7773084 93.898263,-64.19218 Z"
       id="path1129"
       style="fill:#ffffff;fill-opacity:1;fill-rule:evenodd;stroke:none;stroke-width:0.787554" /></g><path
     sodipodi:type="star"
     style="fill:#000080;fill-opacity:1;stroke:#000080;stroke-width:30;stroke-linecap:round;stroke-linejoin:round;stroke-miterlimit:4.7;stroke-dasharray:none;stroke-opacity:0.952941;paint-order:stroke markers fill"
     id="path1198"
     inkscape:flatsided="true"
     sodipodi:sides="3"
     sodipodi:cx="568.79327"
     sodipodi:cy="221.58511"
     sodipodi:r1="60.771057"
     sodipodi:r2="63.475178"
     sodipodi:arg1="1.5643232"
     sodipodi:arg2="2.6115208"
     inkscape:rounded="0"
     inkscape:randomized="0"
     d="m 569.18665,282.3549 -53.21824,-90.814 105.25635,-0.68135 z"
     inkscape:transform-center-x="5.063915"
     inkscape:transform-center-y="26.90513"
     transform="rotate(0.25448047,-3271.1169,-1346.4835)" /><path
     sodipodi:type="star"
     style="fill:#008000;fill-opacity:1;stroke:#008000;stroke-width:30;stroke-linecap:round;stroke-linejoin:round;stroke-miterlimit:4.7;stroke-dasharray:none;stroke-opacity:0.952941;paint-order:stroke markers fill"
     id="path1304"
     inkscape:flatsided="true"
     sodipodi:sides="3"
     sodipodi:cx="568.79327"
     sodipodi:cy="221.58511"
     sodipodi:r1="60.771057"
     sodipodi:r2="63.475178"
     sodipodi:arg1="1.5643232"
     sodipodi:arg2="2.6115208"
     inkscape:rounded="0"
     inkscape:randomized="0"
     d="m 569.18665,282.3549 -53.21824,-90.814 105.25635,-0.68135 z"
     inkscape:transform-center-x="5.0639173"
     inkscape:transform-center-y="-26.905128"
     transform="matrix(0.99999014,-0.00444151,-0.00444151,-0.99999014,434.72948,493.01092)" /></svg>
