<?xml version="1.0" encoding="UTF-8" standalone="no"?>
<!-- Created with Inkscape (http://www.inkscape.org/) -->

<svg
   width="1024"
   height="1024"
   viewBox="0 0 270.93333 270.93333"
   version="1.1"
   id="svg5"
   inkscape:version="1.2.1 (9c6d41e410, 2022-07-14)"
   sodipodi:docname="down-arrow.svg"
   inkscape:export-filename="down-arrow.png"
   inkscape:export-xdpi="4.6875"
   inkscape:export-ydpi="4.6875"
   xmlns:inkscape="http://www.inkscape.org/namespaces/inkscape"
   xmlns:sodipodi="http://sodipodi.sourceforge.net/DTD/sodipodi-0.dtd"
   xmlns="http://www.w3.org/2000/svg"
   xmlns:svg="http://www.w3.org/2000/svg">
  <sodipodi:namedview
     id="namedview7"
     pagecolor="#505050"
     bordercolor="#eeeeee"
     borderopacity="1"
     inkscape:showpageshadow="0"
     inkscape:pageopacity="0"
     inkscape:pagecheckerboard="0"
     inkscape:deskcolor="#505050"
     inkscape:document-units="px"
     showgrid="false"
     inkscape:zoom="0.73940797"
     inkscape:cx="398.29162"
     inkscape:cy="455.09382"
     inkscape:window-width="1920"
     inkscape:window-height="1013"
     inkscape:window-x="-9"
     inkscape:window-y="-9"
     inkscape:window-maximized="1"
     inkscape:current-layer="layer1" />
  <defs
     id="defs2" />
  <g
     inkscape:label="Layer 1"
     inkscape:groupmode="layer"
     id="layer1">
    <g
       id="path285"
       transform="matrix(1.1337109,0,0,1.4193594,-18.11337,-56.809084)">
      <path
         id="path953"
         style="color:#000000;fill:#660080;stroke-width:38.4408;stroke-linecap:round;stroke-miterlimit:4.7;-inkscape-stroke:none"
         d="m 42.957308,87.165046 a 19.220415,19.220415 0 0 0 -4.994353,0.481712 19.220415,19.220415 0 0 0 -11.975195,8.543538 19.220415,19.220415 0 0 0 6.115891,26.484004 l 93.176889,58.21807 a 19.220415,19.220415 0 0 0 0.61086,0.32859 19.220415,19.220415 0 0 0 1.06608,0.57277 19.220415,19.220415 0 0 0 1.18609,0.5347 19.220415,19.220415 0 0 0 1.13395,0.42957 19.220415,19.220415 0 0 0 1.24486,0.37413 19.220415,19.220415 0 0 0 1.17368,0.27729 19.220415,19.220415 0 0 0 1.29288,0.21024 19.220415,19.220415 0 0 0 1.1985,0.12076 19.220415,19.220415 0 0 0 1.30529,0.0397 19.220415,19.220415 0 0 0 1.20349,-0.0364 19.220415,19.220415 0 0 0 1.30197,-0.13166 19.220415,19.220415 0 0 0 1.18858,-0.1937 19.220415,19.220415 0 0 0 1.2697,-0.29879 19.220415,19.220415 0 0 0 1.1596,-0.34929 19.220415,19.220415 0 0 0 1.20845,-0.4569 19.220415,19.220415 0 0 0 1.1174,-0.50324 19.220415,19.220415 0 0 0 1.1356,-0.61084 19.220415,19.220415 0 0 0 0.57195,-0.30708 l 93.18021,-58.21807 a 19.220415,19.220415 0 0 0 6.11589,-26.484004 19.220415,19.220415 0 0 0 -11.97519,-8.543539 19.220415,19.220415 0 0 0 -14.50962,2.424352 L 135.46542,141.92574 52.471743,90.071029 a 19.220415,19.220415 0 0 0 -9.514435,-2.906063 z" />
    </g>
    <g
       id="path895" />
  </g>
</svg>
