<?xml version="1.0" encoding="UTF-8" standalone="no"?>
<!-- Created with Inkscape (http://www.inkscape.org/) -->

<svg
   xml:space="preserve"
   id="svg5"
   version="1.1"
   viewBox="0 0 270.93334 270.93334"
   height="1024"
   width="1024"
   sodipodi:docname="copy.svg"
   inkscape:version="1.2.1 (9c6d41e410, 2022-07-14)"
   xmlns:inkscape="http://www.inkscape.org/namespaces/inkscape"
   xmlns:sodipodi="http://sodipodi.sourceforge.net/DTD/sodipodi-0.dtd"
   xmlns="http://www.w3.org/2000/svg"
   xmlns:svg="http://www.w3.org/2000/svg"><sodipodi:namedview
     id="namedview7"
     pagecolor="#000000"
     bordercolor="#000000"
     borderopacity="0.25"
     inkscape:showpageshadow="2"
     inkscape:pageopacity="0"
     inkscape:pagecheckerboard="0"
     inkscape:deskcolor="#d1d1d1"
     inkscape:document-units="px"
     showgrid="false"
     showborder="false"
     inkscape:zoom="0.5"
     inkscape:cx="651"
     inkscape:cy="619"
     inkscape:window-width="1920"
     inkscape:window-height="1013"
     inkscape:window-x="-9"
     inkscape:window-y="-9"
     inkscape:window-maximized="1"
     inkscape:current-layer="layer2" /><defs
     id="defs2" /><g
     inkscape:label="Layer 1"
     inkscape:groupmode="layer"
     id="layer1"
     style="display:inline"
     transform="matrix(1.2607845,0,0,1.2607845,-3.6097505,-5.7964526)"><g
       id="g5896"
       transform="matrix(1.0321743,0,0,1.0321743,3.7791756,1.6742175)"><path
         id="rect1647"
         style="fill:#0085ef;fill-opacity:1;stroke:none;stroke-width:0.793749"
         inkscape:label="rect1647"
         d="m 34.337826,16.139582 a 6.2919941,6.2919941 0 0 0 -6.291995,6.291995 V 153.51623 a 6.2919941,6.2919941 0 0 0 6.291995,6.29199 H 135.20197 V 53.1964 L 96.849943,16.139582 Z" /><path
         id="path2013"
         style="fill:#f9f9f9;stroke:none;stroke-width:0.653169"
         inkscape:label="rect1647"
         d="M 126.73536,55.099835 95.17573,24.606255 v 30.49358 z" /></g><g
       id="g14965"
       style="display:inline"
       transform="matrix(0.81867625,0,0,0.85599437,6.7343925,3.5463731)"><path
         id="rect14832"
         style="display:inline;fill:#0049a3;fill-opacity:1;stroke-width:0.224012"
         d="m 52.244045,69.08757 h 58.759705 c 2.44146,0 4.40698,1.965512 4.40698,4.406978 0,2.441466 -1.96552,4.406978 -4.40698,4.406978 H 52.244045 c -2.441466,0 -4.406978,-1.965512 -4.406978,-4.406978 0,-2.441466 1.965512,-4.406978 4.406978,-4.406978 z"
         transform="matrix(1.2607845,0,0,1.2607845,-3.6277427,-10.110787)" /><path
         id="rect14856"
         style="display:inline;fill:#0049a3;fill-opacity:1;stroke-width:0.187495"
         d="m 50.924374,125.50345 h 41.164051 c 1.710369,0 3.087305,1.96551 3.087305,4.40698 0,2.44146 -1.376936,4.40697 -3.087305,4.40697 H 50.924374 c -1.710367,0 -3.087305,-1.96551 -3.087305,-4.40697 0,-2.44147 1.376938,-4.40698 3.087305,-4.40698 z"
         transform="matrix(1.2607845,0,0,1.2607845,-3.6277427,-10.110787)" /><path
         d="m 52.244,106.698 h 58.7598 v 0 c 2.442,0 4.407,1.966 4.407,4.407 v 0 c 0,2.442 -1.966,4.407 -4.407,4.407 v 0 h -58.7598 -3e-4 c -2.4413,0 -4.4067,-1.966 -4.4067,-4.407 v 0 c 4e-4,-2.442 1.9658,-4.407 4.407,-4.407 z"
         style="display:inline;fill:#0049a3;fill-opacity:1;stroke-width:0.224012"
         id="path14916"
         transform="matrix(1.2607845,0,0,1.2607845,-3.6277427,-10.110787)" /><path
         d="m 50.924472,87.8929 h 41.163936 7.01e-4 c 1.710041,3e-4 3.086621,1.9657 3.086621,4.4069 v 6e-4 c 0,2.4412 -1.37728,4.4064 -3.087322,4.4064 v 0 h -41.163936 -4.21e-4 c -1.710181,-3e-4 -3.086901,-1.9657 -3.086901,-4.407 v -3e-4 c 1.4e-4,-2.4413 1.377,-4.4066 3.087322,-4.4066 z"
         style="display:inline;fill:#0049a3;fill-opacity:1;stroke-width:0.187495"
         id="path14918"
         transform="matrix(1.2607845,0,0,1.2607845,-3.6277427,-10.110787)" /></g></g><g
     inkscape:groupmode="layer"
     id="layer2"
     inkscape:label="Layer 2"
     transform="matrix(1.2607845,0,0,1.2607845,-6.03602,-4.2668625)"
     style="display:inline"><g
       id="g14102"
       style="display:inline"
       transform="matrix(1.0321743,0,0,1.0321743,52.524787,40.674932)"><path
         id="path5908"
         style="fill:#85c7ff;fill-opacity:1;stroke:none;stroke-width:0.793749"
         inkscape:label="rect1647"
         d="m 34.337769,16.13944 a 6.2919941,6.2919941 0 0 0 -6.291994,6.291994 V 153.51649 a 6.2919941,6.2919941 0 0 0 6.291994,6.292 h 94.572141 a 6.2919941,6.2919941 0 0 0 6.292,-6.292 V 53.196257 L 96.849886,16.13944 Z" /><path
         id="path5910"
         style="fill:#f9f9f9;stroke:none;stroke-width:0.653169"
         inkscape:label="rect1647"
         d="M 126.73536,55.099835 95.17573,24.606255 v 30.49358 z" /></g><g
       id="g14980"
       style="display:inline"
       transform="matrix(0.81867625,0,0,0.85599437,55.494674,42.406134)"><path
         id="path14972"
         style="display:inline;fill:#3056a3;fill-opacity:1;stroke-width:0.224012"
         d="m 52.244045,69.08757 h 58.759705 c 2.44146,0 4.40698,1.965512 4.40698,4.406978 0,2.441466 -1.96552,4.406978 -4.40698,4.406978 H 52.244045 c -2.441466,0 -4.406978,-1.965512 -4.406978,-4.406978 0,-2.441466 1.965512,-4.406978 4.406978,-4.406978 z"
         transform="matrix(1.2607845,0,0,1.2607845,-3.6277427,-10.110787)" /><path
         id="path14974"
         style="display:inline;fill:#3056a3;fill-opacity:1;stroke-width:0.187495"
         d="m 50.924374,125.50345 h 41.164051 c 1.710369,0 3.087305,1.96551 3.087305,4.40698 0,2.44146 -1.376936,4.40697 -3.087305,4.40697 H 50.924374 c -1.710367,0 -3.087305,-1.96551 -3.087305,-4.40697 0,-2.44147 1.376938,-4.40698 3.087305,-4.40698 z"
         transform="matrix(1.2607845,0,0,1.2607845,-3.6277427,-10.110787)" /><path
         d="m 52.244,106.698 h 58.7598 v 0 c 2.442,0 4.407,1.966 4.407,4.407 v 0 c 0,2.442 -1.966,4.407 -4.407,4.407 v 0 h -58.7598 -3e-4 c -2.4413,0 -4.4067,-1.966 -4.4067,-4.407 v 0 c 4e-4,-2.442 1.9658,-4.407 4.407,-4.407 z"
         style="display:inline;fill:#3056a3;fill-opacity:1;stroke-width:0.224012"
         id="path14976"
         transform="matrix(1.2607845,0,0,1.2607845,-3.6277427,-10.110787)" /><path
         d="m 50.924472,87.8929 h 41.163936 7.01e-4 c 1.710041,3e-4 3.086621,1.9657 3.086621,4.4069 v 6e-4 c 0,2.4412 -1.37728,4.4064 -3.087322,4.4064 v 0 h -41.163936 -4.21e-4 c -1.710181,-3e-4 -3.086901,-1.9657 -3.086901,-4.407 v -3e-4 c 1.4e-4,-2.4413 1.377,-4.4066 3.087322,-4.4066 z"
         style="display:inline;fill:#3056a3;fill-opacity:1;stroke-width:0.187495"
         id="path14978"
         transform="matrix(1.2607845,0,0,1.2607845,-3.6277427,-10.110787)" /></g></g></svg>
