<?xml version="1.0" encoding="UTF-8" standalone="no"?>
<!-- Created with Inkscape (http://www.inkscape.org/) -->

<svg
   width="1024"
   height="1024"
   viewBox="0 0 270.93333 270.93333"
   version="1.1"
   id="svg5"
   xml:space="preserve"
   inkscape:version="1.2.1 (9c6d41e410, 2022-07-14)"
   sodipodi:docname="github.svg"
   xmlns:inkscape="http://www.inkscape.org/namespaces/inkscape"
   xmlns:sodipodi="http://sodipodi.sourceforge.net/DTD/sodipodi-0.dtd"
   xmlns="http://www.w3.org/2000/svg"
   xmlns:svg="http://www.w3.org/2000/svg"><sodipodi:namedview
     id="namedview7"
     pagecolor="#ffffff"
     bordercolor="#000000"
     borderopacity="0.25"
     inkscape:showpageshadow="2"
     inkscape:pageopacity="1"
     inkscape:pagecheckerboard="0"
     inkscape:deskcolor="#d1d1d1"
     inkscape:document-units="px"
     showgrid="false"
     showborder="false"
     inkscape:zoom="0.36970399"
     inkscape:cx="258.31477"
     inkscape:cy="347.57537"
     inkscape:window-width="1920"
     inkscape:window-height="1013"
     inkscape:window-x="-9"
     inkscape:window-y="-9"
     inkscape:window-maximized="1"
     inkscape:current-layer="layer1" /><defs
     id="defs2" /><g
     inkscape:label="Layer 1"
     inkscape:groupmode="layer"
     id="layer1"><rect
       style="fill:#000000;stroke-width:0;stroke-linecap:round;stroke-opacity:0.952941;paint-order:stroke markers fill"
       id="rect3692"
       width="270.93332"
       height="270.93332"
       x="0"
       y="0"
       ry="33.988106" /><path
       style="fill:#00ff00;stroke-width:0;stroke-linecap:round;stroke-opacity:0.952941;paint-order:stroke markers fill"
       id="path4580"
       sodipodi:type="arc"
       sodipodi:cx="135.46666"
       sodipodi:cy="135.46666"
       sodipodi:rx="135.46666"
       sodipodi:ry="135.46666"
       sodipodi:start="6.1847203"
       sodipodi:end="6.1731802"
       sodipodi:open="true"
       sodipodi:arc-type="arc"
       d="M 270.27715,122.14948 A 135.46666,135.46666 0 0 1 149.17272,270.23817 135.46666,135.46666 0 0 1 0.73525298,149.56148 135.46666,135.46666 0 0 1 120.9832,0.77647754 135.46666,135.46666 0 0 1 270.1145,120.59467" /><path
       id="path1003"
       style="display:none;fill:#000000;stroke:#000000;stroke-width:0;stroke-linecap:round;stroke-opacity:0.952941;paint-order:stroke markers fill"
       d="m 66.498266,38.282934 c -0.283291,-0.0021 -0.561018,-2.69e-4 -0.832508,0.0052 -5.695849,7.566129 -8.863627,19.012274 -6.005318,39.707653 l 0.01034,-0.0052 c -7.725868,8.985758 -12.436967,21.166458 -12.436967,37.588923 0,53.27215 48.664904,62.84452 74.428737,64.40973 -5.70663,4.0422 -10.20676,8.13414 -14.86781,17.63252 -4.45923,9.08713 1.0735,43.95017 -8.857991,59.46683 -3.248633,5.07557 -9.120164,5.83032 -13.882476,7.3892 -6.775825,2.21798 -13.748202,6.45554 -18.388515,6.45554 H 135.46666 V 54.03236 c -10.7803,0 -22.01749,0.671214 -32.72565,2.600358 l 0.046,-0.02274 C 89.62367,42.126101 75.280287,38.346836 66.498266,38.282934 Z"
       sodipodi:nodetypes="scccscssscccccs" /><path
       id="path1082"
       style="fill:#000000;stroke-width:0;stroke-linecap:round;stroke-opacity:0.952941;paint-order:stroke markers fill"
       d="M 66.498266 38.282934 C 66.214975 38.280834 65.937248 38.282633 65.665758 38.288102 C 59.969921 45.854215 56.802137 57.300418 59.66044 77.995755 L 59.670776 77.990587 C 51.944922 86.976327 47.233809 99.157071 47.233809 115.57951 C 47.233809 168.85154 95.898559 178.4238 121.66234 179.98901 C 115.95573 184.03121 111.45556 188.12317 106.79451 197.62153 C 104.9953 201.28801 104.81572 209.20469 104.59775 218.29985 C 71.396638 231.84029 76.592698 198.70032 49.295698 199.05813 C 43.524877 203.49805 59.059673 205.33026 63.589916 213.92802 C 67.404069 221.16674 78.122299 241.37037 104.04791 232.04371 C 103.39554 241.56158 101.9125 250.87696 97.936657 257.0887 C 94.68803 262.16425 88.816602 262.91903 84.0543 264.47791 C 77.278489 266.69589 70.306063 270.93333 65.665758 270.93333 L 135.46666 270.93333 L 205.26757 270.93333 C 200.62728 270.93333 193.65483 266.69589 186.87903 264.47791 C 182.11671 262.91903 176.2453 262.16425 172.99667 257.0887 C 163.0652 241.57206 168.59803 206.70864 164.13882 197.62153 C 159.47777 188.12317 154.9776 184.03121 149.27099 179.98901 C 175.03476 178.4238 223.69952 168.85154 223.69952 115.57951 C 223.69952 99.157071 218.98842 86.976327 211.26255 77.990587 L 211.27289 77.995755 C 214.1312 57.300418 210.96342 45.854215 205.26757 38.288102 C 204.99608 38.282633 204.71835 38.280834 204.43506 38.282934 C 195.65306 38.346836 181.30964 42.126132 168.14632 56.609981 L 168.19232 56.632718 C 157.48418 54.703578 146.24694 54.03236 135.46666 54.03236 C 124.6864 54.03236 113.44915 54.703578 102.74101 56.632718 L 102.78701 56.609981 C 89.62369 42.126132 75.280269 38.346836 66.498266 38.282934 z " /></g></svg>
