<?xml version="1.0" encoding="UTF-8" standalone="no"?>
<!-- Created with Inkscape (http://www.inkscape.org/) -->

<svg
   width="1024"
   height="1024"
   viewBox="0 0 270.93333 270.93333"
   version="1.1"
   id="svg5"
   xml:space="preserve"
   inkscape:version="1.2.1 (9c6d41e410, 2022-07-14)"
   sodipodi:docname="weibo.svg"
   xmlns:inkscape="http://www.inkscape.org/namespaces/inkscape"
   xmlns:sodipodi="http://sodipodi.sourceforge.net/DTD/sodipodi-0.dtd"
   xmlns="http://www.w3.org/2000/svg"
   xmlns:svg="http://www.w3.org/2000/svg"><sodipodi:namedview
     id="namedview7"
     pagecolor="#000000"
     bordercolor="#000000"
     borderopacity="0.25"
     inkscape:showpageshadow="2"
     inkscape:pageopacity="0"
     inkscape:pagecheckerboard="0"
     inkscape:deskcolor="#d1d1d1"
     inkscape:document-units="px"
     showgrid="false"
     inkscape:zoom="0.5"
     inkscape:cx="-89"
     inkscape:cy="469"
     inkscape:window-width="1920"
     inkscape:window-height="1013"
     inkscape:window-x="-9"
     inkscape:window-y="-9"
     inkscape:window-maximized="1"
     inkscape:current-layer="layer1" /><defs
     id="defs2" /><g
     inkscape:label="Layer 1"
     inkscape:groupmode="layer"
     id="layer1"><path
       id="path6619"
       style="fill:#ffffff;fill-opacity:1;stroke:none;stroke-width:0;stroke-linecap:round;stroke-dasharray:none;stroke-opacity:0.952941;paint-order:stroke markers fill"
       d="M 115.38055 56.467354 C 114.94249 56.456871 114.5045 56.458169 114.06797 56.470971 C 84.452979 57.78092 58.43291 75.429434 38.957828 96.676268 C 20.507978 115.98089 4.0067102 139.30956 0.22272542 166.32008 C 0.0089937742 173.32042 -0.28586673 180.51318 0.25166422 187.43559 C 3.4722285 195.43101 8.0919093 202.86268 13.243636 209.69366 C 18.856454 215.06973 24.495017 220.41233 31.485933 223.97031 C 39.63594 228.74548 47.197391 234.7377 56.471488 237.18655 C 63.881764 239.54868 71.025108 243.12008 78.606054 244.70961 C 92.563083 245.83889 106.49433 247.76559 120.52029 246.75703 C 128.50946 246.31395 136.69648 246.91851 144.56223 245.82168 C 156.64743 241.18999 169.09877 237.27163 180.95484 232.19358 C 192.53664 224.15263 204.47196 216.487 215.83437 208.21313 C 221.08164 200.99139 227.25576 194.27441 231.93468 186.74312 C 235.22492 180.43395 238.46193 175.29844 238.46193 168.27655 C 235.74245 157.46868 234.68933 153.07414 229.00669 147.66747 C 225.64132 143.72999 222.24187 139.30955 217.01156 137.66808 C 211.55703 133.97028 204.97185 133.40149 198.7181 131.91494 C 200.77997 124.07473 201.59934 116.07649 201.67813 107.98411 C 199.82742 94.853988 187.15761 87.94284 175.14538 86.316694 C 162.19261 84.658661 150.49449 91.550916 138.34504 94.483637 C 139.4571 93.82242 137.85527 94.377373 138.00863 94.557018 C 137.32506 94.71775 136.6408 94.873347 135.95397 95.006086 C 132.4982 85.960324 140.46344 73.820522 132.20382 65.119539 C 128.5915 59.410984 121.95145 56.624592 115.38055 56.467354 z M 122.68243 123.14235 C 133.11015 124.43527 143.41917 126.71198 153.02528 130.59513 C 143.73113 126.94727 133.30611 124.54241 122.68243 123.14235 z M 70.778108 127.77049 C 60.551588 132.31732 51.38642 138.89103 43.945637 145.82314 C 51.82897 138.34893 60.917081 132.06746 70.778108 127.77049 z M 173.8328 142.82281 C 178.46472 146.58017 182.01789 151.43498 184.39701 156.80903 C 181.9401 151.45605 178.32688 146.81466 173.8328 142.82281 z M 100.28948 146.29029 C 121.09144 146.29029 144.43032 166.41594 144.59944 176.73236 C 144.76856 187.04878 128.93058 215.79942 105.56203 216.81415 C 82.193491 217.82888 61.729678 205.90228 57.83988 190.60025 C 53.950084 175.29821 72.722335 159.65131 74.413545 158.29835 C 75.172129 157.69148 79.499491 153.06053 85.096614 150.51174 C 91.977922 147.37816 100.28948 146.29029 100.28948 146.29029 z M 28.904179 163.57503 C 27.443977 165.9009 26.301733 168.07482 25.504903 170.01546 C 26.387854 167.75492 27.518936 165.58238 28.904179 163.57503 z M 25.129215 170.97819 C 25.120002 171.00344 25.112976 171.02745 25.103894 171.05261 C 25.112563 171.02786 25.120483 171.00292 25.129215 170.97819 z M 24.592814 172.67421 C 24.344938 173.60758 24.204593 174.45963 24.18457 175.21049 C 24.18457 175.21049 23.910853 175.98961 23.643001 177.17988 C 23.841487 175.66069 24.163475 174.15459 24.592814 172.67421 z M 186.724 182.61004 C 185.42204 187.76026 183.00914 192.63697 179.37716 196.80349 C 182.77822 192.46291 185.31324 187.72179 186.724 182.61004 z M 24.003703 186.60618 C 24.061118 186.75438 24.120323 186.90219 24.18457 187.04905 C 25.664384 190.43147 25.42631 191.76615 27.475842 194.93384 C 25.773588 192.33327 24.63682 189.51482 24.003703 186.60618 z M 29.093831 197.18744 C 30.338279 198.79419 32.055358 200.80112 34.500736 203.45373 C 35.738517 204.79641 37.141185 206.19124 38.714949 207.60541 C 35.197997 204.49751 31.966524 201.03201 29.093831 197.18744 z M 38.761458 207.6483 C 38.94139 207.80968 39.131522 207.97172 39.315946 208.13355 C 39.130142 207.973 38.945696 207.81083 38.761458 207.6483 z M 161.30798 212.29608 C 152.77309 217.64495 143.2761 221.54422 133.45645 224.26176 C 143.25996 221.45148 152.91086 217.4265 161.30798 212.29608 z M 74.469872 225.7795 C 82.110055 227.65707 90.796082 228.85074 100.62745 228.99119 C 100.8991 228.99507 101.17526 228.99353 101.4491 228.99481 C 92.439888 229.02672 83.288099 227.99058 74.469872 225.7795 z " /><path
       id="path3814"
       style="fill:#c43945;fill-opacity:0.996078;stroke-width:0;stroke-linecap:round;paint-order:stroke markers fill"
       d="M 114.06797,56.470971 C 84.452948,57.780921 58.432844,75.429282 38.957743,96.676138 20.507874,115.98078 4.0064992,139.30966 0.22251067,166.32021 c -0.21373186,7.00035 -0.50817219,14.19313 0.0293593,21.11554 3.22056753,7.99543 7.84024123,15.42677 12.99197303,22.25775 5.612824,5.37608 11.250956,10.71876 18.241879,14.27674 8.150015,4.77518 15.711903,10.7675 24.986009,13.21636 7.410284,2.36213 14.553457,5.93344 22.13441,7.52297 13.957043,1.12928 27.888369,3.05615 41.914339,2.04759 7.98918,-0.44308 16.17613,0.16153 24.04189,-0.9353 13.76901,-2.29309 24.53648,-8.55025 36.39257,-13.62831 13.49956,-7.23953 20.25417,-9.98394 34.87954,-23.98047 5.24728,-7.22175 11.42152,-13.93865 16.10044,-21.46995 3.29025,-6.30918 6.52701,-11.44468 6.52701,-18.46658 -2.71948,-10.80788 -3.24965,-15.23428 -8.93229,-20.64095 -3.64568,-4.16472 -7.28752,-8.3259 -12.51784,-9.96737 -5.45453,-3.6978 -12.03994,-4.26674 -18.2937,-5.75329 2.06187,-7.84022 2.88124,-15.83844 2.96003,-23.93083 -1.85071,-13.13013 -14.52026,-20.041187 -26.5325,-21.667335 -13.80028,-1.766519 -26.17641,6.173955 -39.1915,8.689306 -3.45578,-9.045771 4.50906,-21.18538 -3.75057,-29.886372 -3.85314,-6.089131 -11.15114,-8.853563 -18.13559,-8.648738 z m 24.0776,38.132556 c 1.74944,-0.974685 -0.78095,-0.07014 0,0 z m -40.2239,26.995253 c 26.31281,0.3392 54.95199,3.85764 75.91104,21.22385 15.80175,12.81823 19.15663,38.36536 5.54464,53.98072 -17.18343,20.32363 -44.34979,29.32077 -70.11539,31.90137 -30.310355,2.20469 -63.93134,-7.71181 -81.78597,-33.77112 -6.284254,-9.60056 -4.923559,-22.154 1.428348,-31.35853 15.337586,-22.71505 40.827994,-41.36596 69.017332,-41.97629 z"
       sodipodi:nodetypes="ccccccccccccccccccccccccccccccc" /><path
       style="fill:none;fill-opacity:0.161765;stroke-width:22.99999972;stroke-linecap:round;paint-order:stroke markers fill;stroke-dasharray:none;stroke:#f19400;stroke-opacity:0.95294118"
       d="m 192.62987,72.384184 c 15.39009,1.183851 18.94166,3.720681 21.30936,5.919266 2.36771,2.198584 14.03712,13.529754 5.07366,27.736"
       id="path3870" /><path
       style="fill:none;fill-opacity:0.161765;stroke-width:22.99999972;stroke-linecap:round;paint-order:stroke markers fill;stroke-dasharray:none;stroke:#f19400;stroke-opacity:0.95294118"
       d="m 181.46782,38.390676 c 14.37537,-0.169122 38.39068,-3.752014 58.51619,18.080381 20.12551,21.832393 14.71361,59.715703 14.71361,59.715703"
       id="path3872" /><path
       id="path14778"
       style="fill:#000000;fill-opacity:1;stroke:none;stroke-width:0;stroke-linecap:round;stroke-dasharray:none;stroke-opacity:0.952941;paint-order:stroke markers fill"
       d="M 100.28948 146.29029 C 100.28948 146.29029 91.977922 147.37816 85.096614 150.51174 C 79.499491 153.06053 75.172129 157.69148 74.413545 158.29835 C 72.722335 159.65131 53.950084 175.29821 57.83988 190.60025 C 61.729678 205.90228 82.193491 217.82888 105.56203 216.81415 C 128.93058 215.79942 144.76856 187.04878 144.59944 176.73236 C 144.43032 166.41594 121.09144 146.29029 100.28948 146.29029 z M 112.651 168.67807 C 112.651 168.67807 115.99842 168.64004 118.0977 169.88369 C 119.96477 170.98977 120.60713 173.03542 120.66343 173.87982 C 120.78301 175.67363 119.94589 178.06527 110.02016 178.54362 C 100.09443 179.02196 100.33358 174.35808 100.95559 172.20551 C 101.5776 170.05294 106.91082 168.67807 112.651 168.67807 z M 87.606538 175.30609 A 14.782601 14.782601 0 0 1 102.77977 188.45826 L 102.79734 188.62776 A 14.782601 14.782601 0 0 1 89.582128 204.78801 A 14.782601 14.782601 0 0 1 73.38415 191.61931 A 14.782601 14.782601 0 0 1 86.50583 175.38309 A 14.782601 14.782601 0 0 1 87.606538 175.30609 z " /><path
       style="fill:#ffffff;fill-opacity:1;stroke:none;stroke-width:0;stroke-linecap:round;stroke-dasharray:none;stroke-opacity:0.952941;paint-order:stroke markers fill"
       id="path14835"
       sodipodi:type="arc"
       sodipodi:cx="88.086319"
       sodipodi:cy="190.08105"
       sodipodi:rx="14.782601"
       sodipodi:ry="14.782601"
       sodipodi:start="6.1847203"
       sodipodi:end="6.1731802"
       sodipodi:open="true"
       sodipodi:arc-type="arc"
       d="M 102.79732,188.62784 A 14.782601,14.782601 0 0 1 89.581973,204.7878 14.782601,14.782601 0 0 1 73.383951,191.61913 14.782601,14.782601 0 0 1 86.505832,175.38319 14.782601,14.782601 0 0 1 102.77957,188.45817" /><path
       style="fill:#ffffff;fill-opacity:1;stroke:none;stroke-width:0;stroke-linecap:round;stroke-dasharray:none;stroke-opacity:0.952941;paint-order:stroke markers fill"
       d="m 112.6512,168.67783 c -5.74019,0 -11.07347,1.37525 -11.69548,3.52782 -0.62201,2.15257 -0.86118,6.81647 9.06456,6.33813 9.92574,-0.47835 10.76284,-2.8701 10.64326,-4.66391 -0.0563,-0.8444 -0.69892,-2.89009 -2.56599,-3.99618 -2.09928,-1.24365 -5.44635,-1.20586 -5.44635,-1.20586 z"
       id="path14894"
       sodipodi:nodetypes="cssssc" /></g></svg>
